<svg width="1100" height="1100" viewBox="0 0 1100 1100" fill="none" xmlns="http://www.w3.org/2000/svg">
<rect x="100" y="600.024" width="100" height="100" transform="rotate(-180 100 600.024)" fill="black"/>
<rect x="100" y="700.024" width="100" height="100" transform="rotate(-180 100 700.024)" fill="black"/>
<rect x="100" y="1000.02" width="100" height="100" transform="rotate(-180 100 1000.02)" fill="black"/>
<rect x="100" y="800.024" width="100" height="100" transform="rotate(-180 100 800.024)" fill="black"/>
<rect x="100" y="900.024" width="100" height="100" transform="rotate(-180 100 900.024)" fill="black"/>
<rect x="100" y="500" width="100" height="100" transform="rotate(-180 100 500)" fill="black"/>
<rect x="100" y="400" width="100" height="100" transform="rotate(-180 100 400)" fill="black"/>
<rect x="100" y="300" width="100" height="100" transform="rotate(-180 100 300)" fill="black"/>
<rect x="100" y="200" width="100" height="100" transform="rotate(-180 100 200)" fill="black"/>
<rect x="300" y="300" width="100" height="100" transform="rotate(-180 300 300)" fill="black"/>
<rect x="100" y="200" width="100" height="100" transform="rotate(-180 100 200)" fill="black"/>
<rect x="1100" y="600.024" width="100" height="100" transform="rotate(-180 1100 600.024)" fill="black"/>
<rect x="1100" y="700.024" width="100" height="100" transform="rotate(-180 1100 700.024)" fill="black"/>
<rect x="1100" y="1000.02" width="100" height="100" transform="rotate(-180 1100 1000.02)" fill="black"/>
<rect x="1100" y="800.024" width="100" height="100" transform="rotate(-180 1100 800.024)" fill="black"/>
<rect x="1100" y="900.024" width="100" height="100" transform="rotate(-180 1100 900.024)" fill="black"/>
<rect x="1100" y="500" width="100" height="100" transform="rotate(-180 1100 500)" fill="black"/>
<rect x="1100" y="400" width="100" height="100" transform="rotate(-180 1100 400)" fill="black"/>
<rect x="1100" y="300" width="100" height="100" transform="rotate(-180 1100 300)" fill="black"/>
<rect x="1100" y="200" width="100" height="100" transform="rotate(-180 1100 200)" fill="black"/>
<rect x="100" y="600.024" width="100" height="100" transform="rotate(-180 100 600.024)" fill="black"/>
<rect x="100" y="700.024" width="100" height="100" transform="rotate(-180 100 700.024)" fill="black"/>
<rect x="100" y="1000.02" width="100" height="100" transform="rotate(-180 100 1000.02)" fill="black"/>
<rect x="100" y="800.024" width="100" height="100" transform="rotate(-180 100 800.024)" fill="black"/>
<rect x="100" y="900.024" width="100" height="100" transform="rotate(-180 100 900.024)" fill="black"/>
<rect x="100" y="500" width="100" height="100" transform="rotate(-180 100 500)" fill="black"/>
<rect x="100" y="400" width="100" height="100" transform="rotate(-180 100 400)" fill="black"/>
<rect x="100" y="300" width="100" height="100" transform="rotate(-180 100 300)" fill="black"/>
<rect x="400" y="400" width="100" height="100" transform="rotate(-180 400 400)" fill="black"/>
<rect x="500" y="500" width="100" height="100" transform="rotate(-180 500 500)" fill="black"/>
<rect x="600" y="600" width="100" height="100" transform="rotate(-180 600 600)" fill="black"/>
<rect x="500" y="700" width="100" height="100" transform="rotate(-180 500 700)" fill="black"/>
<rect x="400" y="800" width="100" height="100" transform="rotate(-180 400 800)" fill="black"/>
<rect x="300" y="900" width="100" height="100" transform="rotate(-180 300 900)" fill="black"/>
<rect x="700" y="700" width="100" height="100" transform="rotate(-180 700 700)" fill="black"/>
<rect x="800" y="800" width="100" height="100" transform="rotate(-180 800 800)" fill="black"/>
<rect x="900" y="900" width="100" height="100" transform="rotate(-180 900 900)" fill="black"/>
<rect x="700" y="500" width="100" height="100" transform="rotate(-180 700 500)" fill="black"/>
<rect x="800" y="400" width="100" height="100" transform="rotate(-180 800 400)" fill="black"/>
<rect x="900" y="300" width="100" height="100" transform="rotate(-180 900 300)" fill="black"/>
<rect x="100" width="100" height="100" transform="rotate(90 100 0)" fill="black"/>
<rect x="200" width="100" height="100" transform="rotate(90 200 0)" fill="black"/>
<rect x="500" width="100" height="100" transform="rotate(90 500 0)" fill="black"/>
<rect x="600" width="100" height="100" transform="rotate(90 600 0)" fill="black"/>
<rect x="700" width="100" height="100" transform="rotate(90 700 0)" fill="black"/>
<rect x="300" width="100" height="100" transform="rotate(90 300 0)" fill="black"/>
<rect x="400" width="100" height="100" transform="rotate(90 400 0)" fill="black"/>
<rect x="800" width="100" height="100" transform="rotate(90 800 0)" fill="black"/>
<rect x="900" width="100" height="100" transform="rotate(90 900 0)" fill="black"/>
<rect x="1000" width="100" height="100" transform="rotate(90 1000 0)" fill="black"/>
<rect x="1100" width="100" height="100" transform="rotate(90 1100 0)" fill="black"/>
<rect x="100" y="1000" width="100" height="100" transform="rotate(90 100 1000)" fill="black"/>
<rect x="200" y="1000" width="100" height="100" transform="rotate(90 200 1000)" fill="black"/>
<rect x="500" y="1000" width="100" height="100" transform="rotate(90 500 1000)" fill="black"/>
<rect x="600" y="1000" width="100" height="100" transform="rotate(90 600 1000)" fill="black"/>
<rect x="700" y="1000" width="100" height="100" transform="rotate(90 700 1000)" fill="black"/>
<rect x="300" y="1000" width="100" height="100" transform="rotate(90 300 1000)" fill="black"/>
<rect x="400" y="1000" width="100" height="100" transform="rotate(90 400 1000)" fill="black"/>
<rect x="800" y="1000" width="100" height="100" transform="rotate(90 800 1000)" fill="black"/>
<rect x="900" y="1000" width="100" height="100" transform="rotate(90 900 1000)" fill="black"/>
<rect x="1000" y="1000" width="100" height="100" transform="rotate(90 1000 1000)" fill="black"/>
<rect x="1100" y="1000" width="100" height="100" transform="rotate(90 1100 1000)" fill="black"/>
</svg>
